<svg xmlns="http://www.w3.org/2000/svg" viewBox="0 0 24 24"><path fill="#3776AB" d="M14.25.18l.9.2.73.26.59.3.45.32.34.34.25.34.16.33.1.3.04.26.02.2-.01.13V8.5l-.05.63-.13.55-.21.46-.26.38-.3.31-.33.25-.35.19-.35.14-.33.1-.3.07h-4.42v.83h2.82v.58h-2.82v.82h2.82v.58H6.59v-.58H3.76v-2.5h2.83v-.84H2.96V9.06h.84V5.83h.84V2.6h.84V.01h8.77zm.63 1.02h-7.2v2.33H5.42v5h2.25v2.34h7.2V14.2h2.26V9.2h-2.26V6.86h-1.62V.2zM12 3.3a.93.93 0 0 0-.93.93c0 .51.42.92.93.92.52 0 .94-.41.94-.92a.93.93 0 0 0-.94-.93z"/><path fill="#FFD43B" d="M9.67 11.09v.83h4.43l.01-2.5h.84V8.26h-.84v-.59H22.5V.18l-.9-.2-.73-.26-.59-.3-.45-.32-.34-.34-.25-.34-.16-.33-.1-.3-.04-.26-.02-.2.01-.13v7.09l.05-.63.13-.55.21-.46.26-.38.3-.31.33-.25.35-.19.35-.14.33-.1.3-.07h4.42v-.83h-2.82v-.58h2.82v-.82h-2.82v-.58h2.82v.58h2.83v2.5h-2.83v.84h1.62v2.22h-.84v3.23h-.84v2.24h-.84v2.51H9.67zm.63 4.18h7.2v-2.34h2.26V9.2h-2.26V6.86h-7.2v2.34H5.42v5h2.25v2.34h4.43zm5.47-2.5a.93.93 0 0 0 .93-.92.93.93 0 0 0-.93-.93.93.93 0 0 0-.94.93c0 .51.42.92.94.92z"/></svg>
