<svg xmlns="http://www.w3.org/2000/svg" viewBox="0 0 24 24" fill="#CC342D"><path d="M20.156.083c3.033.525 3.893 2.598 3.829 4.77L24 4.822 22.635 22.71 4.89 23.926h.016C3.433 23.864.15 23.729 0 19.139l1.645-3 2.819 6.586.503 1.172 2.805-9.144-.03.007.016-.03 9.255 2.956-1.396-5.431-.99-3.9 8.95-.569-.024.007zM0 19.089v.022-.022zM5.13 5.093c-.218.033-.526.17-.692.342l-1.406 1.406 3.673 3.673 1.46-1.46c.455-.455.455-1.194 0-1.649l-2.02-2.02c-.28-.28-.653-.423-.985-.302zm13.076.252l-2.02 2.02c-.455.455-1.194.455-1.65 0l-1.458-1.458 3.673-3.673 1.406-1.406c.428-.428 1.156-.396 1.591-.134.39.233.609.65.538 1.083-.07.432-.362.78-.74.968z"/></svg>
